<svg width="100" height="100" viewBox="0 0 100 100" fill="none" xmlns="http://www.w3.org/2000/svg">
    <path d="M37.5002 8.3335V20.8335M62.5002 8.3335V20.8335M37.5002 79.1668V91.6668M62.5002 79.1668V91.6668M79.1668 37.5002H91.6668M79.1668 58.3335H91.6668M8.3335 37.5002H20.8335M8.3335 58.3335H20.8335M40.8335 79.1668H59.1668C66.1675 79.1668 69.6678 79.1668 72.3417 77.8044C74.6937 76.606 76.606 74.6937 77.8044 72.3417C79.1668 69.6678 79.1668 66.1675 79.1668 59.1668V40.8335C79.1668 33.8328 79.1668 30.3325 77.8044 27.6586C76.606 25.3066 74.6937 23.3943 72.3417 22.1959C69.6678 20.8335 66.1675 20.8335 59.1668 20.8335H40.8335C33.8328 20.8335 30.3325 20.8335 27.6586 22.1959C25.3066 23.3943 23.3943 25.3066 22.1959 27.6586C20.8335 30.3325 20.8335 33.8328 20.8335 40.8335V59.1668C20.8335 66.1675 20.8335 69.6678 22.1959 72.3417C23.3943 74.6937 25.3066 76.606 27.6586 77.8044C30.3325 79.1668 33.8328 79.1668 40.8335 79.1668Z"
          stroke="white" stroke-width="4.54545" stroke-linecap="round" stroke-linejoin="round"/>
    <path d="M45.8232 41.0923L38.0995 63.5H33.4297L43.1598 37.6477H46.1428L45.8232 41.0923ZM52.2863 63.5L44.5448 41.0923L44.2074 37.6477H47.2081L56.9738 63.5H52.2863ZM51.9134 53.9119V57.4453H37.8509V53.9119H51.9134ZM63.2955 44.2884V63.5H58.9986V44.2884H63.2955ZM58.7145 39.2457C58.7145 38.5947 58.9276 38.0561 59.3537 37.63C59.7917 37.192 60.3954 36.973 61.1648 36.973C61.9224 36.973 62.5202 37.192 62.9581 37.63C63.3961 38.0561 63.6151 38.5947 63.6151 39.2457C63.6151 39.8849 63.3961 40.4176 62.9581 40.8438C62.5202 41.2699 61.9224 41.483 61.1648 41.483C60.3954 41.483 59.7917 41.2699 59.3537 40.8438C58.9276 40.4176 58.7145 39.8849 58.7145 39.2457Z"
          fill="white"/>
</svg>
