<svg width="100" height="100" viewBox="0 0 100 100" fill="none" xmlns="http://www.w3.org/2000/svg">
    <path d="M39.1859 9.0127H35.4148C27.3973 9.0127 20.8021 15.1085 20.0168 22.9194C20.716 22.7782 21.4392 22.7059 22.1797 22.7059H77.8203C78.5469 22.7059 79.2564 22.7782 79.9452 22.9125C79.1565 15.1051 72.5682 9.0127 64.5507 9.0127H60.8553"
          stroke="white" stroke-width="4.54545" stroke-miterlimit="10"/>
    <path d="M63.3869 66.4652H77.8205C83.8371 66.4652 88.7172 61.5852 88.7172 55.5686V33.6064C88.7172 28.3131 84.946 23.9014 79.9454 22.9129C79.2566 22.7786 78.5472 22.7063 77.8205 22.7063H22.1799C21.4394 22.7063 20.7162 22.7786 20.0171 22.9198C15.0337 23.9255 11.2832 28.3268 11.2832 33.6064V55.5686C11.2832 61.5852 16.1633 66.4652 22.1799 66.4652H39.286C39.286 66.4652 42.482 66.3895 45.5024 63.7135C45.6849 63.5517 45.8502 63.3795 46.0155 63.2004C46.5011 62.6803 47.8167 61.4646 49.8521 61.4646C49.8521 61.4646 52.1733 61.3303 53.5061 62.8181C53.5061 62.8181 53.73 63.0729 54.1502 63.4518C56.3267 65.4114 59.1749 66.4652 62.1057 66.4652H63.3834H63.3869Z"
          stroke="white" stroke-width="4.54545" stroke-miterlimit="10"/>
    <path d="M20.2031 66.2862C20.7989 81.667 33.9273 93.9585 50.0381 93.9585C66.149 93.9585 79.2911 81.6566 79.8766 66.2725"
          stroke="white" stroke-width="4.54545" stroke-miterlimit="10"/>
    <path d="M39.175 74.7515C39.175 74.7515 52.3757 79.4078 60.6102 73.9973" stroke="white" stroke-width="4.54545"
          stroke-miterlimit="10" stroke-linecap="round"/>
    <path d="M60.8562 22.7061V8.57553C60.8562 7.17728 59.7197 6.04077 58.3214 6.04077H41.7215C40.3198 6.04077 39.1868 7.17728 39.1868 8.57553V22.7061"
          stroke="white" stroke-width="4.54545" stroke-miterlimit="10"/>
</svg>
