<svg width="100" height="100" viewBox="0 0 100 100" fill="none" xmlns="http://www.w3.org/2000/svg">
    <path d="M82.4345 39.759C82.4345 44.2203 80.3628 48.1994 77.1278 50.7847C74.7312 52.6991 71.7128 53.6668 68.6454 53.6668H27.743C22.4363 53.6668 17.4965 50.6938 15.2501 45.8832C14.4187 44.1085 13.9575 42.1242 13.9575 40.035C13.9575 32.737 19.6101 26.7561 26.7788 26.2425C26.7509 25.8967 26.7369 25.5438 26.7369 25.191C26.7369 17.5541 32.931 11.3635 40.5678 11.3635C45.5252 11.3635 49.8781 13.9732 52.3166 17.8965C53.4765 17.5785 54.6992 17.4108 55.9604 17.4108C61.6129 17.4108 66.4725 20.7996 68.6175 25.6591C76.2753 25.8128 82.4345 32.0663 82.4345 39.759Z"
          stroke="white" stroke-width="4.54545" stroke-miterlimit="10" stroke-linejoin="round"/>
    <path d="M30.4678 53.667V69.0751C30.4678 70.3303 29.4503 71.3478 28.1951 71.3478H18.4919" stroke="white"
          stroke-width="4.54545" stroke-miterlimit="10"/>
    <path d="M40.9136 80.4171V53.667" stroke="white" stroke-width="4.54545" stroke-miterlimit="10"/>
    <path d="M13.7058 76.0395C16.2546 76.0395 18.3208 73.9733 18.3208 71.4245C18.3208 68.8758 16.2546 66.8096 13.7058 66.8096C11.157 66.8096 9.09082 68.8758 9.09082 71.4245C9.09082 73.9733 11.157 76.0395 13.7058 76.0395Z"
          stroke="white" stroke-width="4.54545" stroke-miterlimit="10"/>
    <path d="M71.4229 53.3948V69.0754C71.4229 70.3306 72.4404 71.3481 73.6956 71.3481H83.4022" stroke="white"
          stroke-width="4.54545" stroke-miterlimit="10" stroke-linecap="round"/>
    <path d="M88.0134 76.0395C90.5622 76.0395 92.6284 73.9733 92.6284 71.4245C92.6284 68.8758 90.5622 66.8096 88.0134 66.8096C85.4646 66.8096 83.3984 68.8758 83.3984 71.4245C83.3984 73.9733 85.4646 76.0395 88.0134 76.0395Z"
          stroke="white" stroke-width="4.54545" stroke-miterlimit="10"/>
    <path d="M40.9138 89.7724C43.4626 89.7724 45.5288 87.7062 45.5288 85.1574C45.5288 82.6087 43.4626 80.5425 40.9138 80.5425C38.365 80.5425 36.2988 82.6087 36.2988 85.1574C36.2988 87.7062 38.365 89.7724 40.9138 89.7724Z"
          stroke="white" stroke-width="4.54545" stroke-miterlimit="10"/>
    <path d="M56.6973 80.4171V53.667" stroke="white" stroke-width="4.54545" stroke-miterlimit="10"/>
    <path d="M56.6975 89.7724C59.2463 89.7724 61.3125 87.7062 61.3125 85.1574C61.3125 82.6087 59.2463 80.5425 56.6975 80.5425C54.1487 80.5425 52.0825 82.6087 52.0825 85.1574C52.0825 87.7062 54.1487 89.7724 56.6975 89.7724Z"
          stroke="white" stroke-width="4.54545" stroke-miterlimit="10"/>
</svg>
