<svg width="100" height="100" viewBox="0 0 100 100" fill="none" xmlns="http://www.w3.org/2000/svg">
    <path d="M29.1668 39.5834L8.3335 50.0001L48.5094 70.0881C49.056 70.3614 49.3293 70.498 49.616 70.5518C49.8699 70.5994 50.1304 70.5994 50.3843 70.5518C50.671 70.498 50.9443 70.3614 51.4909 70.0881L91.6668 50.0001L70.8335 39.5834M29.1668 60.4168L8.3335 70.8334L48.5094 90.9214C49.056 91.1947 49.3293 91.3314 49.616 91.3851C49.8699 91.4328 50.1304 91.4328 50.3843 91.3851C50.671 91.3314 50.9443 91.1947 51.4909 90.9214L91.6668 70.8334L70.8335 60.4168M8.3335 29.1668L48.5094 9.0788C49.056 8.8055 49.3293 8.66885 49.616 8.61507C49.8699 8.56744 50.1304 8.56744 50.3843 8.61507C50.671 8.66885 50.9443 8.8055 51.4909 9.0788L91.6668 29.1668L51.4909 49.2548C50.9443 49.528 50.671 49.6647 50.3843 49.7185C50.1304 49.7661 49.8699 49.7661 49.616 49.7185C49.3293 49.6647 49.056 49.528 48.5094 49.2548L8.3335 29.1668Z"
          stroke="white" stroke-width="4.54545" stroke-linecap="round" stroke-linejoin="round"/>
</svg>
