<svg width="100" height="100" viewBox="0 0 100 100" fill="none" xmlns="http://www.w3.org/2000/svg">
    <path d="M21.8895 46.9532H25.8667C28.0004 46.9532 29.7715 46.5907 31.1801 45.8657C32.6095 45.1407 33.6763 44.1671 34.3806 42.9449C35.0849 41.702 35.4371 40.3244 35.4371 38.8122C35.4371 37.0307 35.1263 35.5082 34.5049 34.2446C33.8834 32.981 32.9409 32.0177 31.6773 31.3548C30.4344 30.6713 28.8497 30.3295 26.9232 30.3295C25.1831 30.3295 23.6399 30.6713 22.2934 31.3548C20.9677 32.0384 19.9215 33.012 19.1551 34.2757C18.3886 35.5186 18.0054 36.9893 18.0054 38.6879H13.0649C13.0649 36.3264 13.6449 34.2135 14.805 32.3492C15.9857 30.4641 17.6222 28.9726 19.7144 27.8747C21.8066 26.7768 24.2095 26.2279 26.9232 26.2279C29.6162 26.2279 31.9777 26.7147 34.0077 27.6883C36.0378 28.6412 37.6121 30.0602 38.7307 31.9452C39.8493 33.8303 40.4086 36.1607 40.4086 38.9365C40.4086 40.1587 40.129 41.4223 39.5697 42.7274C39.0104 44.0324 38.1611 45.2339 37.0217 46.3318C35.9031 47.4297 34.4738 48.3204 32.7338 49.004C30.9937 49.6876 28.9326 50.0294 26.5503 50.0294H21.8895V46.9532ZM21.8895 51.0858V48.0097H26.5503C29.3054 48.0097 31.6151 48.3411 33.4795 49.004C35.3438 49.6462 36.8353 50.5265 37.9539 51.6452C39.0932 52.743 39.9115 53.9859 40.4086 55.3738C40.9058 56.741 41.1544 58.1497 41.1544 59.5997C41.1544 61.6919 40.8022 63.5563 40.0979 65.1927C39.3936 66.8085 38.3993 68.1757 37.115 69.2943C35.8306 70.4129 34.3288 71.2622 32.6095 71.8422C30.8901 72.4223 29.0154 72.7123 26.9853 72.7123C25.0796 72.7123 23.2567 72.443 21.5166 71.9044C19.7973 71.3451 18.2644 70.5372 16.9179 69.4807C15.5714 68.4036 14.5149 67.0778 13.7485 65.5035C12.982 63.9084 12.5988 62.0751 12.5988 60.0036H17.5083C17.5083 61.7023 17.9018 63.2041 18.689 64.5091C19.4762 65.7935 20.5844 66.7981 22.0138 67.5232C23.4431 68.2482 25.1003 68.6107 26.9853 68.6107C28.8911 68.6107 30.5276 68.2793 31.8948 67.6164C33.2827 66.9535 34.3392 65.9592 35.0642 64.6334C35.8099 63.3077 36.1828 61.6712 36.1828 59.724C36.1828 57.7146 35.7581 56.0782 34.9088 54.8145C34.0595 53.5509 32.858 52.6188 31.3044 52.018C29.7508 51.3966 27.9382 51.0858 25.8667 51.0858H21.8895ZM46.5175 69.3564C46.5175 68.4864 46.7868 67.751 47.3254 67.1503C47.8847 66.5289 48.6822 66.2181 49.7179 66.2181C50.733 66.2181 51.5201 66.5185 52.0795 67.1192C52.6388 67.72 52.9184 68.4657 52.9184 69.3564C52.9184 70.2058 52.6388 70.9308 52.0795 71.5315C51.5201 72.1323 50.733 72.4326 49.7179 72.4326C48.6822 72.4326 47.8847 72.1323 47.3254 71.5315C46.7868 70.9308 46.5175 70.2058 46.5175 69.3564ZM86.8992 45.7414V52.9502C86.8992 56.4925 86.5782 59.5272 85.936 62.0544C85.2938 64.5609 84.3617 66.6014 83.1395 68.1757C81.9173 69.7293 80.4362 70.879 78.6961 71.6247C76.9561 72.3498 74.9881 72.7123 72.7923 72.7123C71.0523 72.7123 69.4469 72.4844 67.9761 72.0287C66.5261 71.5729 65.221 70.8479 64.061 69.8536C62.9217 68.8593 61.9377 67.5853 61.1091 66.0317C60.3012 64.4781 59.6798 62.6241 59.2448 60.4697C58.8305 58.2947 58.6233 55.7881 58.6233 52.9502V45.7414C58.6233 42.1991 58.9444 39.1955 59.5866 36.7304C60.2494 34.2446 61.192 32.2249 62.4141 30.6713C63.657 29.1176 65.1382 27.9887 66.8575 27.2844C68.5976 26.58 70.5551 26.2279 72.7302 26.2279C74.491 26.2279 76.1067 26.4558 77.5775 26.9115C79.0483 27.3672 80.3533 28.0715 81.4926 29.0244C82.6527 29.9773 83.6263 31.2202 84.4134 32.7531C85.2213 34.2653 85.8324 36.0986 86.2467 38.2529C86.6817 40.4073 86.8992 42.9034 86.8992 45.7414ZM81.9587 53.6649V44.9956C81.9587 42.9449 81.8241 41.122 81.5548 39.5269C81.3062 37.9318 80.9333 36.5543 80.4362 35.3943C79.9597 34.2342 79.3486 33.2813 78.6029 32.5356C77.8572 31.7899 76.9975 31.2306 76.0239 30.8577C75.0503 30.4848 73.9524 30.2984 72.7302 30.2984C71.2387 30.2984 69.9233 30.5884 68.784 31.1684C67.6447 31.7484 66.6918 32.6288 65.9253 33.8096C65.1589 34.9903 64.5789 36.5129 64.1853 38.3772C63.7917 40.2209 63.5949 42.427 63.5949 44.9956V53.6649C63.5949 55.6949 63.7192 57.5178 63.9678 59.1336C64.2164 60.7287 64.5892 62.1269 65.0864 63.3284C65.6043 64.5091 66.2257 65.4931 66.9507 66.2803C67.6965 67.0467 68.5561 67.6267 69.5297 68.0203C70.5033 68.4139 71.5909 68.6107 72.7923 68.6107C74.3253 68.6107 75.6614 68.3103 76.8007 67.7096C77.94 67.0882 78.8929 66.1663 79.6594 64.9442C80.4258 63.722 80.9955 62.1684 81.3683 60.2833C81.7619 58.3982 81.9587 56.1921 81.9587 53.6649Z"
          fill="white"/>
</svg>
